<svg xmlns="http://www.w3.org/2000/svg" width="21" height="21" viewBox="0 0 21 21"><defs><style>.a{fill:#efb90a;}</style></defs><path class="a" d="M22.875,25.5H10.625A2.625,2.625,0,0,1,8,22.875V10.625A2.625,2.625,0,0,1,10.625,8h12.25A2.625,2.625,0,0,1,25.5,10.625v12.25A2.625,2.625,0,0,1,22.875,25.5ZM10.625,9.75a.875.875,0,0,0-.875.875v12.25a.875.875,0,0,0,.875.875h12.25a.875.875,0,0,0,.875-.875V10.625a.875.875,0,0,0-.875-.875Z" transform="translate(-4.5 -4.5)"/><path class="a" d="M8.375,21.5H6.625A2.625,2.625,0,0,1,4,18.875V6.625A2.625,2.625,0,0,1,6.625,4h12.25A2.625,2.625,0,0,1,21.5,6.625v1.75a.875.875,0,0,1-1.75,0V6.625a.875.875,0,0,0-.875-.875H6.625a.875.875,0,0,0-.875.875v12.25a.875.875,0,0,0,.875.875h1.75a.875.875,0,0,1,0,1.75Z" transform="translate(-4 -4)"/><path class="a" d="M14.625,23.129a2.625,2.625,0,0,1-1.855-4.48l.875-.875a2.686,2.686,0,0,1,3.71,0,2.625,2.625,0,0,1,0,3.71l-.875.875A2.625,2.625,0,0,1,14.625,23.129Zm.875-4.375a.875.875,0,0,0-.621.254h0L14,19.883a.872.872,0,0,0,1.234,1.234l.875-.875a.875.875,0,0,0-.613-1.488ZM14.267,18.4Z" transform="translate(-5 -5.629)"/><path class="a" d="M19.625,18.129a2.625,2.625,0,0,1-1.855-4.48l.875-.875a2.686,2.686,0,0,1,3.71,0,2.625,2.625,0,0,1,0,3.71l-.875.875A2.625,2.625,0,0,1,19.625,18.129Zm.875-4.375a.875.875,0,0,0-.621.254h0L19,14.883a.872.872,0,0,0,1.234,1.234l.875-.875a.875.875,0,0,0-.613-1.488ZM19.267,13.4Z" transform="translate(-5.625 -5.004)"/><path class="a" d="M16.874,19.506a.875.875,0,0,1-.621-1.5L18,16.26a.875.875,0,0,1,1.234,1.234l-1.75,1.75A.875.875,0,0,1,16.874,19.506Z" transform="translate(-5.499 -5.506)"/></svg>