<svg class="w-3" width="14" height="16" viewBox="0 0 14 16" fill="none" xmlns="http://www.w3.org/2000/svg"><path d="M12.999 2h-2v-.75a.8.8 0 0 0-.196-.53.631.631 0 0 0-.471-.22H3.665a.631.631 0 0 0-.471.22.8.8 0 0 0-.195.53V2h-2a.631.631 0 0 0-.472.22.8.8 0 0 0-.195.53V5c0 3.232 1.2 5.182 3.213 5.25a4.348 4.348 0 0 0 1.178 1.44c.481.378 1.03.63 1.609.742V14H4.999v1.5h4V14H7.665v-1.568a3.769 3.769 0 0 0 1.61-.742 4.347 4.347 0 0 0 1.177-1.44c2-.075 3.213-2.025 3.213-5.25V2.75a.8.8 0 0 0-.195-.53A.631.631 0 0 0 13 2zM1.665 5V3.5H3v5.123C1.812 8.06 1.665 5.975 1.665 5zM11 8.623V3.5h1.333V5c0 .975-.147 3.06-1.333 3.623z" fill="#efb90a"></path></svg>