<svg width="64" height="64" fill="none" xmlns="http://www.w3.org/2000/svg"><g clip-path="url(#clip0_246_33071)" fill-rule="evenodd" clip-rule="evenodd"><path d="M50.325 51.816c-.49.458-.999.905-1.535 1.32-4.59 3.684-10.426 5.863-16.782 5.863-6.358 0-12.192-2.179-16.798-5.863a26.267 26.267 0 01-1.55-1.32C8.331 46.886 5 39.839 5 32.007 5 17.084 17.084 5 32.008 5 46.916 5 59 17.084 59 32.008c0 7.831-3.332 14.877-8.675 19.808z" fill="#262626"/><path d="M15.21 51.753v1.381C19.816 56.821 25.652 59 32.008 59c6.356 0 12.192-2.18 16.782-5.866v-1.381c0-14.818-33.58-14.818-33.58 0z" fill="#666"/><path d="M32.008 17.282A10.223 10.223 0 0021.782 27.51c0 5.648 4.575 10.224 10.226 10.224 5.634 0 10.21-4.576 10.21-10.224 0-5.652-4.576-10.228-10.21-10.228z" fill="#666"/></g><path fill-rule="evenodd" clip-rule="evenodd" d="M20.772 58.588c.574 0 1.038.464 1.038 1.04a1.04 1.04 0 11-1.038-1.041zM2.182 40a1.042 1.042 0 010 2.082 1.04 1.04 0 01-1.04-1.04A1.04 1.04 0 012.183 40zM48.2 36.873a1.04 1.04 0 11-.003 2.08 1.04 1.04 0 01.003-2.08zM60.77 15.16a1.04 1.04 0 11.003 2.08 1.04 1.04 0 01-.003-2.08zM19.629 1.443a1.04 1.04 0 011.038 1.042 1.04 1.04 0 11-2.08 0c0-.575.468-1.042 1.042-1.042z" fill="#B2B2B2"/><defs><clipPath id="clip0_246_33071"><path fill="#fff" transform="translate(5 5)" d="M0 0h54v54H0z"/></clipPath></defs></svg>